<svg width="300" height="300" viewBox="0 0 300 300" fill="none" xmlns="http://www.w3.org/2000/svg">
<rect width="300" height="300" rx="50" fill="#FAFAFA"/>
<path d="M145 32C210.17 32 263 85.0543 263 150.5C263 153.462 262.892 156.398 262.679 159.305C262.356 163.729 258.562 167 254.126 167C248.642 167 244.492 162.077 244.819 156.603C244.939 154.584 245 152.549 245 150.5C245 94.9235 200.157 50 145 50C89.8432 50 45 94.9235 45 150.5C45 206.076 89.8432 251 145 251C164.47 251 182.655 245.402 198.035 235.714C204.12 231.881 213 235.913 213 243.104C213 245.77 211.718 248.287 209.49 249.751C190.953 261.923 168.8 269 145 269C79.8304 269 27 215.946 27 150.5C27 85.0543 79.8304 32 145 32Z" fill="#541111"/>
<path d="M272.547 191.257C275.28 193.991 275.281 198.423 272.547 201.157L251.334 222.37C251.014 222.69 250.669 222.971 250.308 223.216C247.562 225.352 243.592 225.161 241.068 222.637L219.855 201.423C217.121 198.69 217.121 194.258 219.855 191.524C222.589 188.79 227.021 188.79 229.755 191.524L246.068 207.836L262.647 191.257C265.38 188.524 269.813 188.524 272.547 191.257Z" fill="#541111"/>
<path d="M154.76 107.846C159.33 112.416 160.626 119.02 158.65 124.744L181.592 147.686C187.256 145.835 193.731 147.16 198.233 151.662C204.613 158.042 204.614 168.388 198.233 174.768C191.853 181.148 181.508 181.148 175.127 174.768C170.424 170.064 169.189 163.205 171.421 157.369L150.595 136.544L150.596 192.025C152.033 192.775 153.382 193.755 154.589 194.962C160.969 201.342 160.97 211.687 154.589 218.067C148.209 224.447 137.864 224.447 131.484 218.068C125.103 211.687 125.103 201.341 131.484 194.961C133.033 193.411 134.818 192.239 136.722 191.442L136.723 134.399C134.883 133.604 133.158 132.455 131.654 130.952C127.017 126.315 125.752 119.584 127.855 113.803L106.647 92.5955C105.476 91.424 105.476 89.5245 106.647 88.3529L112.332 82.6684C113.503 81.4971 115.403 81.4969 116.574 82.6684L137.863 103.957C143.587 101.98 150.19 103.276 154.76 107.846Z" fill="#541111"/>
</svg>
