<svg width="248" height="237" viewBox="0 0 248 237" fill="none" xmlns="http://www.w3.org/2000/svg">
<path d="M118 0C183.17 0 236 53.0543 236 118.5C236 121.462 235.892 124.398 235.679 127.305C235.356 131.729 231.562 135 227.126 135C221.642 135 217.492 130.077 217.819 124.603C217.939 122.584 218 120.549 218 118.5C218 62.9235 173.157 18 118 18C62.8432 18 18 62.9235 18 118.5C18 174.076 62.8432 219 118 219C137.47 219 155.655 213.402 171.035 203.714C177.12 199.881 186 203.913 186 211.104C186 213.77 184.718 216.287 182.49 217.751C163.953 229.923 141.8 237 118 237C52.8304 237 0 183.946 0 118.5C0 53.0543 52.8304 0 118 0Z" fill="#541111"/>
<path d="M245.547 159.257C248.28 161.991 248.281 166.423 245.547 169.157L224.334 190.37C224.014 190.69 223.669 190.971 223.308 191.216C220.562 193.352 216.592 193.161 214.068 190.637L192.855 169.423C190.121 166.69 190.121 162.258 192.855 159.524C195.589 156.79 200.021 156.79 202.755 159.524L219.068 175.836L235.647 159.257C238.38 156.524 242.813 156.524 245.547 159.257Z" fill="#541111"/>
<path d="M127.76 75.846C132.33 80.416 133.626 87.02 131.65 92.744L154.592 115.686C160.256 113.835 166.731 115.16 171.233 119.662C177.613 126.042 177.614 136.388 171.233 142.768C164.853 149.148 154.508 149.148 148.127 142.768C143.424 138.064 142.189 131.205 144.421 125.369L123.595 104.544L123.596 160.025C125.033 160.775 126.382 161.755 127.589 162.962C133.969 169.342 133.97 179.687 127.589 186.067C121.209 192.447 110.864 192.447 104.484 186.068C98.1031 179.687 98.1033 169.341 104.484 162.961C106.033 161.411 107.818 160.239 109.722 159.442L109.723 102.399C107.883 101.604 106.158 100.455 104.654 98.9519C100.017 94.315 98.7521 87.5843 100.855 81.8032L79.6471 60.5955C78.4756 59.424 78.4757 57.5245 79.6471 56.3529L85.3316 50.6684C86.5032 49.4971 88.4027 49.4969 89.5742 50.6684L110.863 71.9569C116.587 69.9804 123.19 71.2762 127.76 75.846Z" fill="#541111"/>
</svg>
